HIERARCHY
ROOT pelvis
{
  OFFSET 0 100 0
  CHANNELS 6 Xposition Yposition Zposition Zrotation Xrotation Yrotation
  JOINT pelvis_right_femur
  {
    OFFSET -10.78128 -3.44521 -0.5502486
    CHANNELS 3 Zrotation Xrotation Yrotation
    JOINT right_femur_tibia
    {
      OFFSET -0.8047443 -44.0398 -0.1307829
      CHANNELS 3 Zrotation Xrotation Yrotation
      JOINT right_tibia_foot
      {
        OFFSET 3.006224 -47.83518 -5
        CHANNELS 3 Zrotation Xrotation Yrotation
        End Site
        {
          OFFSET 0 -5 15
        }
      }
    }
  }
  JOINT pelvis_left_femur
  {
    OFFSET 10.78128 -3.44521 -0.5502486
    CHANNELS 3 Zrotation Xrotation Yrotation
    JOINT left_femur_tibia
    {
      OFFSET 0.8047443 -44.0398 -0.1307829
      CHANNELS 3 Zrotation Xrotation Yrotation
      JOINT left_tibia_foot
      {
        OFFSET -4.370144 -48.10324 -4.275266
        CHANNELS 3 Zrotation Xrotation Yrotation
        End Site
        {
          OFFSET 0 -5 15
        }
      }
    }
  }
  JOINT pelvis_spine1
  {
    OFFSET 0 6.468898 -3.129235
    CHANNELS 3 Zrotation Xrotation Yrotation
    JOINT spine1
    {
      OFFSET 0 23.15396 4.99043
      CHANNELS 3 Zrotation Xrotation Yrotation
      JOINT spine2
      {
        OFFSET 0 20.79997 -5.064912
        CHANNELS 3 Zrotation Xrotation Yrotation
        JOINT neck
        {
          OFFSET 0 14.38658 9.616178
          CHANNELS 3 Zrotation Xrotation Yrotation
          End Site
          {
            OFFSET 0 20 0
          }
        }
      }
      JOINT right_manubrium
      {
        OFFSET -5.722621 16.35077 3.967754
        CHANNELS 3 Zrotation Xrotation Yrotation
        JOINT right_clavicle
        {
          OFFSET -13.16364 1.694482 -4.693211
          CHANNELS 3 Zrotation Xrotation Yrotation
          JOINT right_humerus
          {
            OFFSET -28.5034 -0.3100689 -2.792744
            CHANNELS 3 Zrotation Xrotation Yrotation
            JOINT right_radius
            {
              OFFSET -25.15693 0.02248979 -1.271978
              CHANNELS 3 Zrotation Xrotation Yrotation
              End Site
              {
                OFFSET -15 0 0
              }
            }
          }
        }
      }
      JOINT left_manubrium
      {
        OFFSET 5.722621 16.35077 3.967754
        CHANNELS 3 Zrotation Xrotation Yrotation
        JOINT left_clavicle
        {
          OFFSET 13.16364 1.694482 -4.693211
          CHANNELS 3 Zrotation Xrotation Yrotation
          JOINT left_humerus
          {
            OFFSET 29.39168 -1.063119 -2.237045
            CHANNELS 3 Zrotation Xrotation Yrotation
            JOINT left_radius
            {
              OFFSET 24.59957 -0.9528479 0.9047498
              CHANNELS 3 Zrotation Xrotation Yrotation
              End Site
              {
                OFFSET 15 -0 -0
              }
            }
          }
        }
      }
    }
  }
}
MOTION
Frames: 15
Frame Time: 0.0416666666667
-269.1653 99.64516 3081.811 -1.832563 -6.108058 -20.33336 2.318129 18.56408 3.940796 -0 20.13282 -0 -1.108655 -13.07787 -1.19798 1.127248 -24.3324 -4.298371 -0 17.47463 -0 -4.82423 -6.434377 19.52174 0.767461 -2.396352 6.617325 -1.242363 15.86671 -2.567921 -0.3832597 21.32312 5.623331 6.738636 -14.67741 1.438187 2.756043 -26.74593 13.80029 81.2891 14.70773 -5.876908 -0 0 27.37327 -32.28826 12.68578 17.99835 4.631561 -23.713 -11.44905 -98.03954 5.446286 33.80822 -0 0 7.979688 12.92413 11.83657 -5.102034
-270.4379 99.22579 3088.781 -1.30519 -6.290734 -20.63379 0.9792939 18.87789 3.921546 -0 26.25203 -0 -0.931011 -9.514996 -1.142347 -0.7148622 -22.73399 -5.834918 -0 17.89831 -0 -4.107814 -6.861193 19.66654 0.5862095 -2.156845 6.575277 -1.324989 15.50298 -2.554449 -0.3624551 21.55982 5.787108 6.806575 -14.68355 1.611861 2.632911 -26.22053 13.58347 81.51109 15.96754 -5.986195 -0 0 26.50373 -31.7333 12.16577 17.34892 4.739976 -23.58532 -11.11144 -97.69704 5.780352 33.0814 -0 0 7.445038 12.88472 11.93667 -5.074453
-271.7132 99.3571 3095.861 -0.7923553 -6.863048 -20.56546 -0.1321281 17.75279 3.83586 -0 34.16665 -0 -0.996334 -4.64126 -1.415742 -2.672687 -20.03176 -7.274766 -0 19.54416 -0 -3.036518 -7.552177 19.74659 0.4410288 -1.906567 6.511246 -1.383512 15.27728 -2.685056 -0.3530637 21.72809 5.926939 6.920348 -14.73594 1.709006 2.513039 -25.62463 13.39003 81.98844 17.21817 -6.556523 -0 0 25.42874 -31.05092 11.65051 16.43644 4.869029 -23.69403 -10.89514 -97.1694 6.000532 32.11398 -0 0 6.494448 12.95735 11.99745 -5.164405
-272.9585 100.0561 3102.817 -0.5162066 -7.587694 -20.07788 -0.6932111 14.88085 3.616007 -0 42.81832 -0 -1.267604 0.2874558 -2.021034 -4.211812 -16.30994 -8.270623 -0 20.98635 -0 -1.904441 -8.406087 19.62369 0.3204859 -1.662995 6.43939 -1.400696 15.16662 -2.970053 -0.3561482 21.80852 6.03354 7.056197 -14.85495 1.740289 2.395405 -25.00409 13.21152 82.70984 18.47791 -7.558097 -0 0 24.23422 -30.20165 11.16042 15.26236 5.017922 -24.02165 -10.76767 -96.47039 6.099262 30.9588 -0 0 5.113096 13.13297 12.01136 -5.359368
-274.1336 101.1781 3109.43 -0.5841659 -8.238122 -19.23618 -0.6499795 10.28179 3.283171 -0 50.4028 -0 -1.691182 3.957911 -2.910436 -5.074574 -11.77048 -8.760282 -0 21.30013 -0 -1.039363 -9.376994 19.2189 0.203662 -1.441436 6.365207 -1.359559 15.13577 -3.41654 -0.3627396 21.79506 6.096906 7.179562 -15.07184 1.736817 2.278161 -24.38983 13.03242 83.66396 19.78262 -8.950775 -0 0 22.98359 -29.13512 10.71486 13.82817 5.191616 -24.53155 -10.67946 -95.61143 6.105222 29.63422 -0 0 3.266252 13.41283 12.00157 -5.6536
-275.2117 102.4494 3115.575 -0.916895 -8.648592 -18.18833 -0.2195203 4.350836 2.901386 -0 54.94152 -0 -2.209599 5.622987 -3.945733 -5.327982 -6.781784 -8.902713 -0 20.27895 -0 -0.5793241 -10.49412 18.56098 0.06199306 -1.260865 6.291126 -1.244151 15.14239 -4.020971 -0.3591994 21.69156 6.108522 7.248784 -15.42278 1.742773 2.161764 -23.81856 12.83667 84.819 21.15729 -10.66067 -0 0 21.75276 -27.81266 10.32947 12.16171 5.397025 -25.16648 -10.57414 -94.61392 6.068587 28.15317 -0 0 0.9305892 13.80833 12.00144 -6.052011
-276.2021 103.5485 3121.256 -1.297332 -8.731035 -17.09587 0.2744294 -2.253036 2.470476 -0 55.07597 -0 -2.735395 5.346624 -4.919735 -5.237654 -1.816626 -8.893246 -0 18.2994 -0 -0.4264008 -11.82819 17.75695 -0.1372103 -1.144823 6.223344 -1.046924 15.1416 -4.755365 -0.3347664 21.51314 6.068929 7.22573 -15.93401 1.805102 2.048308 -23.34535 12.61396 86.09957 22.60062 -12.55079 -0 0 20.65018 -26.23886 10.0043 10.34465 5.637766 -25.84712 -10.40125 -93.52012 6.045292 26.55228 0 0 -1.868145 14.33266 12.02959 -6.566438
-277.1518 104.1999 3126.595 -1.495393 -8.482529 -16.08066 0.5649521 -8.797337 1.889482 -0 50.60009 -0 -3.143721 3.768431 -5.648761 -5.09543 2.715028 -8.837291 -0 16.00105 -0 -0.3987925 -13.43627 16.91224 -0.4211059 -1.111454 6.171252 -0.780269 15.08987 -5.555138 -0.2856848 21.29241 5.996031 7.090873 -16.60026 1.964182 1.940866 -23.02458 12.36387 87.38061 24.09524 -14.41661 -0 0 19.7875 -24.48514 9.717767 8.521212 5.91012 -26.47453 -10.1266 -92.39024 6.089549 24.89416 0 0 -5.02804 14.98458 12.07758 -7.202336
-278.1293 104.242 3131.782 -1.377669 -7.977121 -15.20498 0.5271505 -14.64931 1.048923 -0 42.48341 -0 -3.339964 1.713798 -6.062325 -5.096452 6.62 -8.748414 -0 14.00019 -0 -0.3995917 -15.2968 16.08468 -0.794422 -1.156278 6.134332 -0.4814435 14.94702 -6.321859 -0.2120846 21.08194 5.926163 6.853926 -17.37087 2.250137 1.848116 -22.85835 12.09602 88.51362 25.63415 -16.03244 -0 0 19.20271 -22.68188 9.444702 6.872354 6.204347 -26.94062 -9.733769 -91.28357 6.255481 23.23529 0 0 -8.369559 15.73487 12.12234 -7.943779
-279.2043 103.6571 3137.02 -0.9526194 -7.328321 -14.47261 0.2139674 -19.37465 -0.02401494 -0 32.49623 -0 -3.335105 -0.07600675 -6.224496 -5.287109 9.931414 -8.603652 -0 12.76327 -0 -0.4662628 -17.2462 15.29089 -1.225553 -1.246086 6.09184 -0.1999621 14.68328 -6.950824 -0.1137508 20.93885 5.9016 6.552033 -18.15897 2.677178 1.78897 -22.76788 11.82785 89.37752 27.22118 -17.23391 -0 0 18.81286 -20.97528 9.187025 5.558185 6.508315 -27.15596 -9.22422 -90.24314 6.58802 21.60694 0 0 -11.65915 16.524 12.14768 -8.743643
-280.437 102.5641 3142.489 -0.3613284 -6.652351 -13.84526 -0.1457279 -22.74728 -1.097449 -0 22.68917 -0 -3.244353 -1.113406 -6.286291 -5.572365 12.77899 -8.38691 -0 12.6418 -0 -0.7256755 -18.9504 14.52295 -1.653007 -1.334765 6.013841 0.02653177 14.2961 -7.372393 0.008731224 20.89689 5.947753 6.234644 -18.8711 3.229541 1.785931 -22.63505 11.58079 89.92077 28.82891 -17.9764 -0 0 18.46416 -19.47841 8.980498 4.658414 6.805802 -27.08802 -8.623786 -89.30354 7.09837 20.04512 0 0 -14.64018 17.27011 12.15618 -9.520295
-281.8739 101.1889 3148.313 0.1668032 -6.060498 -13.27713 -0.217128 -24.69897 -1.810201 -0 14.90289 -0 -3.221047 -1.284022 -6.405879 -5.767648 15.22633 -8.104985 -0 13.97691 -0 -1.298117 -19.94521 13.77398 -2.012349 -1.386003 5.884396 0.1870883 13.82226 -7.576371 0.1509326 20.95319 6.056406 5.943342 -19.43811 3.853691 1.850891 -22.3778 11.37393 90.16617 30.36606 -18.32362 -0 0 18.03481 -18.25128 8.868002 4.151774 7.071108 -26.77674 -7.984313 -88.51111 7.751987 18.63047 0 0 -17.05597 17.88542 12.17138 -10.16797
-283.5428 99.82514 3154.548 0.3899723 -5.66354 -12.75952 0.2955919 -25.25521 -1.846516 -0 10.36388 -0 -3.379848 -0.847016 -6.67352 -5.683256 17.16417 -7.783405 -0 17.14868 -0 -2.177404 -19.76489 13.09706 -2.261794 -1.384243 5.714813 0.292454 13.32969 -7.602081 0.3044452 21.07985 6.189667 5.699522 -19.83211 4.472232 1.978132 -21.99202 11.21791 90.18141 31.69973 -18.38523 -0 0 17.50065 -17.31067 8.869017 3.945325 7.268727 -26.31042 -7.368977 -87.93396 8.484617 17.49339 0 0 -18.6684 18.29729 12.23229 -10.58298
-285.439 98.78515 3161.162 0.154341 -5.560097 -12.35501 1.480282 -24.48445 -1.105508 -0 9.379115 -0 -3.739696 -0.281008 -7.068677 -5.223387 18.29688 -7.451914 -0 22.47459 -0 -3.186811 -18.15263 12.64853 -2.390029 -1.333905 5.541319 0.3602797 12.89415 -7.508369 0.4584008 21.24264 6.300286 5.505363 -20.06535 5.010795 2.149142 -21.54447 11.11408 90.03923 32.70965 -18.25528 -0 0 16.93591 -16.6453 8.969777 3.924907 7.360793 -25.78421 -6.830744 -87.65391 9.228701 16.79067 0 0 -19.28767 18.46253 12.37941 -10.68946
-287.511 98.33294 3168.034 -0.5155427 -5.808526 -12.19301 3.116678 -22.46876 0.2306605 -0 11.2129 -0 -4.201563 -0.05594788 -7.465443 -4.46186 18.22723 -7.131303 -0 29.94782 -0 -4.098351 -15.27896 12.63103 -2.409378 -1.257183 5.415195 0.4052832 12.57498 -7.348615 0.5997898 21.40887 6.352749 5.352024 -20.17458 5.418601 2.341878 -21.14204 11.05874 89.78884 33.32893 -17.98493 -0 0 16.47846 -16.21969 9.13268 3.993742 7.318929 -25.27238 -6.398524 -87.74501 9.929582 16.67421 0 0 -18.82555 18.36551 12.63647 -10.44717
